<svg width="549" height="293" viewBox="0 0 549 293" fill="none" xmlns="http://www.w3.org/2000/svg">
<path fill-rule="evenodd" clip-rule="evenodd" d="M18.5333 78.1281C17.8994 78.1219 17.4704 77.4797 17.7073 76.8917L26.4767 55.1284C26.747 54.4576 27.658 54.3634 28.0598 54.9648L32.759 61.9985C55.988 47.3906 83.5454 41.0785 110.913 44.1955C140.031 47.5119 166.957 61.2766 186.697 82.9363C206.437 104.596 217.651 132.68 218.258 161.98C218.838 189.944 209.718 217.203 192.518 239.156C191.156 240.895 188.627 241.113 186.934 239.694L186.022 238.93C184.329 237.511 184.114 234.992 185.471 233.249C201.245 213.004 209.604 187.91 209.071 162.17C208.509 135.095 198.147 109.142 179.905 89.1263C161.663 69.1105 136.781 56.3905 109.873 53.3259C84.667 50.4551 59.2869 56.2396 37.8661 69.6426L42.7528 76.957C43.1545 77.5584 42.7188 78.364 41.9956 78.357L18.5333 78.1281Z" fill="#0082FF"/>
<circle cx="140.736" cy="272.8" r="4.74802" transform="rotate(-22.1672 140.736 272.8)" fill="#5B5B5B" fill-opacity="0.2"/>
<circle cx="153.48" cy="266.326" r="4.74802" transform="rotate(-22.1672 153.48 266.326)" fill="#5B5B5B" fill-opacity="0.4"/>
<circle cx="177.175" cy="248.982" r="4.74802" transform="rotate(-22.1672 177.175 248.982)" fill="#5B5B5B" fill-opacity="0.8"/>
<circle cx="165.775" cy="258.753" r="4.74802" transform="rotate(-22.1672 165.775 258.753)" fill="#5B5B5B" fill-opacity="0.6"/>
<rect x="107.448" y="76.9" width="98.8029" height="151.816" rx="7.5" transform="rotate(42.412 107.448 76.9)" stroke="#F4F4F4" stroke-width="7"/>
<g clip-path="url(#clip0)">
<path d="M84.6548 173.785C80.9619 170.411 80.2325 165.024 82.6249 160.936L70.3398 149.714C62.1249 160.45 63.4714 175.993 73.7912 185.42C84.1111 194.847 99.7205 194.794 109.663 185.636L97.6339 174.647C93.7708 177.408 88.3476 177.158 84.6548 173.785Z" fill="white"/>
<path d="M78.7672 189.041C88.6835 194.633 101.213 193.417 109.663 185.636L104.819 181.21C97.3306 188.434 87.3097 191.199 78.7672 189.041Z" fill="#DFDFDF"/>
<path d="M96.0765 170.369C96.0674 170.36 96.0674 170.36 96.0765 170.369C96.5688 169.811 96.945 169.198 97.2061 168.545C98.1117 166.268 97.5505 163.56 95.6127 161.79C93.6748 160.02 90.9189 159.714 88.7419 160.812C88.1152 161.131 87.5378 161.561 87.0364 162.11L87.0455 162.119C86.5441 162.668 86.1679 163.281 85.9068 163.934C85.0013 166.21 85.5625 168.919 87.5003 170.689C89.4381 172.459 92.1941 172.765 94.3711 171.666C94.9896 171.356 95.5751 170.917 96.0765 170.369Z" fill="white"/>
<path d="M98.4489 158.702C102.142 162.076 102.871 167.463 100.479 171.551L112.764 182.773C120.987 172.028 119.64 156.486 109.311 147.05C98.9825 137.614 83.3914 137.684 73.4397 146.834L85.478 157.831C89.3329 155.079 94.7561 155.329 98.4489 158.702Z" fill="#0082FF"/>
<path d="M107.663 178.097L112.764 182.756C119.864 173.478 119.825 160.599 113.011 151.188C116.072 159.548 114.239 169.907 107.663 178.097Z" fill="#004D98"/>
</g>
<path d="M324.985 131.075V158.995H319.385V140.835L311.905 158.995H307.665L300.145 140.835V158.995H294.545V131.075H300.905L309.785 151.835L318.665 131.075H324.985ZM329.081 147.835C329.081 145.595 329.521 143.608 330.401 141.875C331.308 140.142 332.521 138.808 334.041 137.875C335.588 136.942 337.308 136.475 339.201 136.475C340.855 136.475 342.295 136.808 343.521 137.475C344.775 138.142 345.775 138.982 346.521 139.995V136.835H352.161V158.995H346.521V155.755C345.801 156.795 344.801 157.662 343.521 158.355C342.268 159.022 340.815 159.355 339.161 159.355C337.295 159.355 335.588 158.875 334.041 157.915C332.521 156.955 331.308 155.608 330.401 153.875C329.521 152.115 329.081 150.102 329.081 147.835ZM346.521 147.915C346.521 146.555 346.255 145.395 345.721 144.435C345.188 143.448 344.468 142.702 343.561 142.195C342.655 141.662 341.681 141.395 340.641 141.395C339.601 141.395 338.641 141.648 337.761 142.155C336.881 142.662 336.161 143.408 335.601 144.395C335.068 145.355 334.801 146.502 334.801 147.835C334.801 149.168 335.068 150.342 335.601 151.355C336.161 152.342 336.881 153.102 337.761 153.635C338.668 154.168 339.628 154.435 340.641 154.435C341.681 154.435 342.655 154.182 343.561 153.675C344.468 153.142 345.188 152.395 345.721 151.435C346.255 150.448 346.521 149.275 346.521 147.915ZM363.231 140.275C363.951 139.102 364.884 138.182 366.031 137.515C367.204 136.848 368.537 136.515 370.031 136.515V142.395H368.551C366.791 142.395 365.457 142.808 364.551 143.635C363.671 144.462 363.231 145.902 363.231 147.955V158.995H357.631V136.835H363.231V140.275ZM386.922 158.995L379.402 149.555V158.995H373.802V129.395H379.402V146.235L386.842 136.835H394.122L384.362 147.955L394.202 158.995H386.922ZM417.762 147.435C417.762 148.235 417.709 148.955 417.602 149.595H401.402C401.535 151.195 402.095 152.448 403.082 153.355C404.069 154.262 405.282 154.715 406.722 154.715C408.802 154.715 410.282 153.822 411.162 152.035H417.202C416.562 154.168 415.335 155.928 413.522 157.315C411.709 158.675 409.482 159.355 406.842 159.355C404.709 159.355 402.789 158.888 401.082 157.955C399.402 156.995 398.082 155.648 397.122 153.915C396.189 152.182 395.722 150.182 395.722 147.915C395.722 145.622 396.189 143.608 397.122 141.875C398.055 140.142 399.362 138.808 401.042 137.875C402.722 136.942 404.655 136.475 406.842 136.475C408.949 136.475 410.829 136.928 412.482 137.835C414.162 138.742 415.455 140.035 416.362 141.715C417.295 143.368 417.762 145.275 417.762 147.435ZM411.962 145.835C411.935 144.395 411.415 143.248 410.402 142.395C409.389 141.515 408.149 141.075 406.682 141.075C405.295 141.075 404.122 141.502 403.162 142.355C402.229 143.182 401.655 144.342 401.442 145.835H411.962ZM428.369 141.435V152.155C428.369 152.902 428.543 153.448 428.889 153.795C429.263 154.115 429.876 154.275 430.729 154.275H433.329V158.995H429.809C425.089 158.995 422.729 156.702 422.729 152.115V141.435H420.089V136.835H422.729V131.355H428.369V136.835H433.329V141.435H428.369ZM442.957 140.035C443.677 139.022 444.664 138.182 445.917 137.515C447.197 136.822 448.651 136.475 450.277 136.475C452.171 136.475 453.877 136.942 455.397 137.875C456.944 138.808 458.157 140.142 459.037 141.875C459.944 143.582 460.397 145.568 460.397 147.835C460.397 150.102 459.944 152.115 459.037 153.875C458.157 155.608 456.944 156.955 455.397 157.915C453.877 158.875 452.171 159.355 450.277 159.355C448.651 159.355 447.211 159.022 445.957 158.355C444.731 157.688 443.731 156.848 442.957 155.835V169.555H437.357V136.835H442.957V140.035ZM454.677 147.835C454.677 146.502 454.397 145.355 453.837 144.395C453.304 143.408 452.584 142.662 451.677 142.155C450.797 141.648 449.837 141.395 448.797 141.395C447.784 141.395 446.824 141.662 445.917 142.195C445.037 142.702 444.317 143.448 443.757 144.435C443.224 145.422 442.957 146.582 442.957 147.915C442.957 149.248 443.224 150.408 443.757 151.395C444.317 152.382 445.037 153.142 445.917 153.675C446.824 154.182 447.784 154.435 448.797 154.435C449.837 154.435 450.797 154.168 451.677 153.635C452.584 153.102 453.304 152.342 453.837 151.355C454.397 150.368 454.677 149.195 454.677 147.835ZM470.067 129.395V158.995H464.467V129.395H470.067ZM474.159 147.835C474.159 145.595 474.599 143.608 475.479 141.875C476.386 140.142 477.599 138.808 479.119 137.875C480.666 136.942 482.386 136.475 484.279 136.475C485.933 136.475 487.373 136.808 488.599 137.475C489.853 138.142 490.853 138.982 491.599 139.995V136.835H497.239V158.995H491.599V155.755C490.879 156.795 489.879 157.662 488.599 158.355C487.346 159.022 485.893 159.355 484.239 159.355C482.373 159.355 480.666 158.875 479.119 157.915C477.599 156.955 476.386 155.608 475.479 153.875C474.599 152.115 474.159 150.102 474.159 147.835ZM491.599 147.915C491.599 146.555 491.333 145.395 490.799 144.435C490.266 143.448 489.546 142.702 488.639 142.195C487.733 141.662 486.759 141.395 485.719 141.395C484.679 141.395 483.719 141.648 482.839 142.155C481.959 142.662 481.239 143.408 480.679 144.395C480.146 145.355 479.879 146.502 479.879 147.835C479.879 149.168 480.146 150.342 480.679 151.355C481.239 152.342 481.959 153.102 482.839 153.635C483.746 154.168 484.706 154.435 485.719 154.435C486.759 154.435 487.733 154.182 488.639 153.675C489.546 153.142 490.266 152.395 490.799 151.435C491.333 150.448 491.599 149.275 491.599 147.915ZM501.269 147.915C501.269 145.622 501.735 143.622 502.669 141.915C503.602 140.182 504.895 138.848 506.549 137.915C508.202 136.955 510.095 136.475 512.229 136.475C514.975 136.475 517.242 137.168 519.029 138.555C520.842 139.915 522.055 141.835 522.669 144.315H516.629C516.309 143.355 515.762 142.608 514.989 142.075C514.242 141.515 513.309 141.235 512.189 141.235C510.589 141.235 509.322 141.822 508.389 142.995C507.455 144.142 506.989 145.782 506.989 147.915C506.989 150.022 507.455 151.662 508.389 152.835C509.322 153.982 510.589 154.555 512.189 154.555C514.455 154.555 515.935 153.542 516.629 151.515H522.669C522.055 153.915 520.842 155.822 519.029 157.235C517.215 158.648 514.949 159.355 512.229 159.355C510.095 159.355 508.202 158.888 506.549 157.955C504.895 156.995 503.602 155.662 502.669 153.955C501.735 152.222 501.269 150.208 501.269 147.915ZM547.371 147.435C547.371 148.235 547.318 148.955 547.211 149.595H531.011C531.145 151.195 531.705 152.448 532.691 153.355C533.678 154.262 534.891 154.715 536.331 154.715C538.411 154.715 539.891 153.822 540.771 152.035H546.811C546.171 154.168 544.945 155.928 543.131 157.315C541.318 158.675 539.091 159.355 536.451 159.355C534.318 159.355 532.398 158.888 530.691 157.955C529.011 156.995 527.691 155.648 526.731 153.915C525.798 152.182 525.331 150.182 525.331 147.915C525.331 145.622 525.798 143.608 526.731 141.875C527.665 140.142 528.971 138.808 530.651 137.875C532.331 136.942 534.265 136.475 536.451 136.475C538.558 136.475 540.438 136.928 542.091 137.835C543.771 138.742 545.065 140.035 545.971 141.715C546.905 143.368 547.371 145.275 547.371 147.435ZM541.571 145.835C541.545 144.395 541.025 143.248 540.011 142.395C538.998 141.515 537.758 141.075 536.291 141.075C534.905 141.075 533.731 141.502 532.771 142.355C531.838 143.182 531.265 144.342 531.051 145.835H541.571Z" fill="#F4F4F4"/>
<path d="M305.872 189.674C305.872 190.57 305.656 191.41 305.224 192.194C304.808 192.978 304.144 193.61 303.232 194.09C302.336 194.57 301.2 194.81 299.824 194.81H297.016V201.242H293.656V184.49H299.824C301.12 184.49 302.224 184.714 303.136 185.162C304.048 185.61 304.728 186.226 305.176 187.01C305.64 187.794 305.872 188.682 305.872 189.674ZM299.68 192.098C300.608 192.098 301.296 191.89 301.744 191.474C302.192 191.042 302.416 190.442 302.416 189.674C302.416 188.042 301.504 187.226 299.68 187.226H297.016V192.098H299.68ZM319.658 184.49V187.202H315.194V201.242H311.834V187.202H307.37V184.49H319.658ZM321.293 192.842C321.293 191.194 321.661 189.722 322.397 188.426C323.149 187.114 324.165 186.098 325.445 185.378C326.741 184.642 328.189 184.274 329.789 184.274C331.661 184.274 333.301 184.754 334.709 185.714C336.117 186.674 337.101 188.002 337.661 189.698H333.797C333.413 188.898 332.869 188.298 332.165 187.898C331.477 187.498 330.677 187.298 329.765 187.298C328.789 187.298 327.917 187.53 327.149 187.994C326.397 188.442 325.805 189.082 325.373 189.914C324.957 190.746 324.749 191.722 324.749 192.842C324.749 193.946 324.957 194.922 325.373 195.77C325.805 196.602 326.397 197.25 327.149 197.714C327.917 198.162 328.789 198.386 329.765 198.386C330.677 198.386 331.477 198.186 332.165 197.786C332.869 197.37 333.413 196.762 333.797 195.962H337.661C337.101 197.674 336.117 199.01 334.709 199.97C333.317 200.914 331.677 201.386 329.789 201.386C328.189 201.386 326.741 201.026 325.445 200.306C324.165 199.57 323.149 198.554 322.397 197.258C321.661 195.962 321.293 194.49 321.293 192.842ZM352.195 189.53C351.811 188.826 351.283 188.29 350.611 187.922C349.939 187.554 349.155 187.37 348.259 187.37C347.267 187.37 346.387 187.594 345.619 188.042C344.851 188.49 344.251 189.13 343.819 189.962C343.387 190.794 343.171 191.754 343.171 192.842C343.171 193.962 343.387 194.938 343.819 195.77C344.267 196.602 344.883 197.242 345.667 197.69C346.451 198.138 347.363 198.362 348.403 198.362C349.683 198.362 350.731 198.026 351.547 197.354C352.363 196.666 352.899 195.714 353.155 194.498H347.395V191.93H356.467V194.858C356.243 196.026 355.763 197.106 355.027 198.098C354.291 199.09 353.339 199.89 352.171 200.498C351.019 201.09 349.723 201.386 348.283 201.386C346.667 201.386 345.203 201.026 343.891 200.306C342.595 199.57 341.571 198.554 340.819 197.258C340.083 195.962 339.715 194.49 339.715 192.842C339.715 191.194 340.083 189.722 340.819 188.426C341.571 187.114 342.595 186.098 343.891 185.378C345.203 184.642 346.659 184.274 348.259 184.274C350.147 184.274 351.787 184.738 353.179 185.666C354.571 186.578 355.531 187.866 356.059 189.53H352.195Z" fill="url(#paint0_linear)"/>
<defs>
<linearGradient id="paint0_linear" x1="292.673" y1="193.909" x2="358" y2="193.909" gradientUnits="userSpaceOnUse">
<stop stop-color="#0082FF"/>
<stop offset="0.96875" stop-color="#00509D"/>
</linearGradient>
<clipPath id="clip0">
<rect x="88.7632" y="114.66" width="73.701" height="72.408" rx="4" transform="rotate(42.412 88.7632 114.66)" fill="white"/>
</clipPath>
</defs>
</svg>
